<svg width="40" height="40" viewBox="0 0 40 40" fill="none" xmlns="http://www.w3.org/2000/svg">
<path d="M22.5729 17.4267C21.2077 16.0621 19.3564 15.2955 17.4262 15.2955C15.4959 15.2955 13.6447 16.0621 12.2795 17.4267L7.13119 22.5733C5.76599 23.9385 4.99902 25.7901 4.99902 27.7208C4.99902 29.6515 5.76599 31.5031 7.13119 32.8683C8.49639 34.2335 10.348 35.0005 12.2787 35.0005C14.2094 35.0005 16.061 34.2335 17.4262 32.8683L19.9995 30.295" stroke="black" stroke-width="2" stroke-linecap="round" stroke-linejoin="round"/>
<path d="M17.4268 22.5732C18.7919 23.9378 20.6432 24.7044 22.5734 24.7044C24.5037 24.7044 26.3549 23.9378 27.7201 22.5732L32.8684 17.4266C34.2336 16.0614 35.0006 14.2097 35.0006 12.2791C35.0006 10.3484 34.2336 8.49676 32.8684 7.13155C31.5032 5.76635 29.6516 4.99939 27.7209 4.99939C25.7902 4.99939 23.9386 5.76635 22.5734 7.13155L20.0001 9.70489" stroke="black" stroke-width="2" stroke-linecap="round" stroke-linejoin="round"/>
</svg>
