<svg width="18" height="18" viewBox="0 0 18 18" fill="none" xmlns="http://www.w3.org/2000/svg">
<path d="M9 2.71875C9.5576 2.71873 10.0935 2.93472 10.4953 3.32138C10.8971 3.70804 11.1334 4.23531 11.1547 4.7925L11.1562 4.875H13.875C13.9949 4.87539 14.1101 4.9217 14.1969 5.00442C14.2837 5.08714 14.3355 5.19997 14.3416 5.31971C14.3478 5.43945 14.3078 5.55699 14.2299 5.64817C14.1521 5.73934 14.0422 5.79721 13.923 5.80987L13.875 5.8125H13.4659L12.8273 14.2762C12.797 14.677 12.6164 15.0516 12.3217 15.3249C12.027 15.5982 11.6399 15.75 11.238 15.75H6.762C6.36008 15.75 5.973 15.5982 5.67829 15.3249C5.38358 15.0516 5.20301 14.677 5.17275 14.2762L4.53375 5.8125H4.125C4.00895 5.81255 3.89701 5.76956 3.81084 5.69183C3.72466 5.61411 3.67038 5.50719 3.6585 5.39175L3.65625 5.34375C3.65625 5.10112 3.84075 4.90125 4.077 4.87762L4.125 4.875H6.84375C6.84375 4.30313 7.07093 3.75468 7.4753 3.3503C7.87968 2.94593 8.42813 2.71875 9 2.71875ZM12.5258 5.8125H5.47425L6.108 14.2057C6.12048 14.3707 6.19478 14.5248 6.31605 14.6373C6.43731 14.7498 6.59659 14.8124 6.762 14.8125H11.238C11.4035 14.8125 11.5628 14.75 11.6842 14.6375C11.8055 14.525 11.8799 14.3708 11.8924 14.2057L12.5261 5.8125H12.5258ZM10.2188 7.78125C10.4614 7.78125 10.6612 7.96575 10.6852 8.202L10.6875 8.25V12.375C10.6881 12.4955 10.6422 12.6117 10.5593 12.6992C10.4765 12.7868 10.3632 12.8391 10.2428 12.8453C10.1224 12.8515 10.0043 12.8111 9.91292 12.7324C9.82157 12.6538 9.76403 12.543 9.75225 12.423L9.75 12.375V8.25C9.75 7.99125 9.96 7.78125 10.2188 7.78125ZM7.78125 7.78125C8.02388 7.78125 8.22375 7.96575 8.24775 8.202L8.25 8.25V12.375C8.25056 12.4955 8.20467 12.6117 8.12185 12.6992C8.03903 12.7868 7.92566 12.8391 7.80528 12.8453C7.6849 12.8515 7.56677 12.8111 7.47542 12.7324C7.38407 12.6538 7.32653 12.543 7.31475 12.423L7.3125 12.375V8.25C7.3125 7.99125 7.5225 7.78125 7.78125 7.78125ZM9 3.65625C8.6887 3.65623 8.38919 3.77533 8.16291 3.98913C7.93664 4.20292 7.80075 4.4952 7.78312 4.806L7.78125 4.875H10.2188C10.2188 4.55177 10.0903 4.24177 9.86179 4.01321C9.63323 3.78465 9.32323 3.65625 9 3.65625Z" fill="#F90F0F"/>
</svg>
