<svg width="28" height="28" viewBox="0 0 28 28" fill="none" xmlns="http://www.w3.org/2000/svg">
<rect width="28" height="28" rx="14" fill="#4D4D4D"/>
<path d="M10.7471 8.75C9.6408 8.75 8.75 9.6408 8.75 10.7471V17.6904C8.75 18.7967 9.6408 19.6875 10.7471 19.6875H14.5103V15.4116H13.3796V13.8722H14.5103V12.5569C14.5103 11.5236 15.1783 10.5749 16.7173 10.5749C17.3404 10.5749 17.8011 10.6347 17.8011 10.6347L17.7649 12.0723C17.7649 12.0723 17.295 12.0678 16.7822 12.0678C16.2273 12.0678 16.1383 12.3235 16.1383 12.748V13.8722H17.809L17.7362 15.4116H16.1383V19.6875H17.6904C18.7967 19.6875 19.6875 18.7967 19.6875 17.6904V10.7471C19.6875 9.64081 18.7967 8.75001 17.6904 8.75001H10.7471L10.7471 8.75Z" fill="white"/>
</svg>
