<svg width="130" height="140" viewBox="0 0 130 140" fill="none" xmlns="http://www.w3.org/2000/svg">
<path d="M60 120C93.06 120 120 93.12 120 60C120 26.94 93.06 0 60 0C26.88 0 0 26.94 0 60C0 92.5586 25.9765 119.087 58.3214 119.977L60 120Z" fill="url(#paint0_linear)"/>
<g opacity="0.5" filter="url(#filter0_f)">
<path d="M82 124C99.632 124 114 109.664 114 92C114 74.368 99.632 60 82 60C64.336 60 50 74.368 50 92C50 109.365 63.8542 123.513 81.1047 123.988L82 124Z" fill="#2BA22C"/>
</g>
<g filter="url(#filter1_bd)">
<mask id="path-3-inside-1" fill="white">
<path d="M52.6843 81.4626C51.3179 81.4626 49.9514 80.944 48.9082 79.9009L34.4319 65.4246C32.3456 63.3383 32.3456 59.9586 34.4319 57.8784C36.5183 55.7921 39.8918 55.786 41.9781 57.8723L52.6843 68.5785L77.8668 43.3961C79.9531 41.3097 83.3267 41.3097 85.413 43.3961C87.4993 45.4824 87.4993 48.862 85.413 50.9483L56.4605 79.9009C55.4173 80.944 54.0508 81.4626 52.6843 81.4626Z"/>
</mask>
<path d="M52.6843 81.4626C51.3179 81.4626 49.9514 80.944 48.9082 79.9009L34.4319 65.4246C32.3456 63.3383 32.3456 59.9586 34.4319 57.8784C36.5183 55.7921 39.8918 55.786 41.9781 57.8723L52.6843 68.5785L77.8668 43.3961C79.9531 41.3097 83.3267 41.3097 85.413 43.3961C87.4993 45.4824 87.4993 48.862 85.413 50.9483L56.4605 79.9009C55.4173 80.944 54.0508 81.4626 52.6843 81.4626Z" fill="url(#paint1_linear)"/>
<path d="M34.4319 57.8784L34.5732 58.02L34.5734 58.0198L34.4319 57.8784ZM52.6843 68.5785L52.5429 68.7199L52.6843 68.8614L52.8258 68.7199L52.6843 68.5785ZM85.413 50.9483L85.2716 50.8069L85.413 50.9483ZM56.4605 79.9009L56.6019 80.0423L56.4605 79.9009ZM52.6843 81.2626C51.3685 81.2626 50.0536 80.7634 49.0496 79.7594L48.7668 80.0423C49.8491 81.1246 51.2672 81.6626 52.6843 81.6626V81.2626ZM49.0496 79.7594L34.5734 65.2832L34.2905 65.566L48.7668 80.0423L49.0496 79.7594ZM34.5734 65.2832C32.565 63.2748 32.5653 60.022 34.5732 58.02L34.2907 57.7368C32.1259 59.8953 32.1262 63.4017 34.2905 65.566L34.5734 65.2832ZM34.5734 58.0198C36.5819 56.0113 39.8288 56.0058 41.8367 58.0137L42.1196 57.7309C39.9548 55.5661 36.4547 55.5728 34.2905 57.737L34.5734 58.0198ZM41.8367 58.0137L52.5429 68.7199L52.8258 68.4371L42.1196 57.7309L41.8367 58.0137ZM52.8258 68.7199L78.0082 43.5375L77.7254 43.2546L52.5429 68.4371L52.8258 68.7199ZM78.0082 43.5375C80.0165 41.5292 83.2633 41.5292 85.2716 43.5375L85.5544 43.2546C83.39 41.0902 79.8898 41.0902 77.7254 43.2546L78.0082 43.5375ZM85.2716 43.5375C87.2798 45.5457 87.2798 48.7987 85.2716 50.8069L85.5544 51.0898C87.7189 48.9253 87.7189 45.4191 85.5544 43.2546L85.2716 43.5375ZM85.2716 50.8069L56.3191 79.7594L56.6019 80.0423L85.5544 51.0898L85.2716 50.8069ZM56.3191 79.7594C55.3151 80.7634 54.0002 81.2626 52.6843 81.2626V81.6626C54.1015 81.6626 55.5196 81.1246 56.6019 80.0423L56.3191 79.7594Z" fill="url(#paint2_linear)" fill-opacity="0.5" mask="url(#path-3-inside-1)"/>
</g>
<defs>
<filter id="filter0_f" x="34" y="44" width="96" height="96" filterUnits="userSpaceOnUse" color-interpolation-filters="sRGB">
<feFlood flood-opacity="0" result="BackgroundImageFix"/>
<feBlend mode="normal" in="SourceGraphic" in2="BackgroundImageFix" result="shape"/>
<feGaussianBlur stdDeviation="8" result="effect1_foregroundBlur"/>
</filter>
<filter id="filter1_bd" x="17.8672" y="26.8313" width="84.1106" height="69.6313" filterUnits="userSpaceOnUse" color-interpolation-filters="sRGB">
<feFlood flood-opacity="0" result="BackgroundImageFix"/>
<feGaussianBlur in="BackgroundImage" stdDeviation="7.5"/>
<feComposite in2="SourceAlpha" operator="in" result="effect1_backgroundBlur"/>
<feColorMatrix in="SourceAlpha" type="matrix" values="0 0 0 0 0 0 0 0 0 0 0 0 0 0 0 0 0 0 127 0"/>
<feOffset dx="5" dy="5"/>
<feGaussianBlur stdDeviation="5"/>
<feColorMatrix type="matrix" values="0 0 0 0 0.454902 0 0 0 0 0.870588 0 0 0 0 0.376471 0 0 0 0.5 0"/>
<feBlend mode="normal" in2="effect1_backgroundBlur" result="effect2_dropShadow"/>
<feBlend mode="normal" in="SourceGraphic" in2="effect2_dropShadow" result="shape"/>
</filter>
<linearGradient id="paint0_linear" x1="120" y1="0" x2="35.389" y2="98.9568" gradientUnits="userSpaceOnUse">
<stop stop-color="#9BF763"/>
<stop offset="1" stop-color="#26AB5B"/>
</linearGradient>
<linearGradient id="paint1_linear" x1="83.1414" y1="48.9879" x2="22.9226" y2="51.6686" gradientUnits="userSpaceOnUse">
<stop stop-color="white"/>
<stop offset="1" stop-color="white" stop-opacity="0.2"/>
</linearGradient>
<linearGradient id="paint2_linear" x1="38.6961" y1="55.1257" x2="84.6422" y2="55.472" gradientUnits="userSpaceOnUse">
<stop stop-color="white"/>
<stop offset="1" stop-color="white" stop-opacity="0"/>
</linearGradient>
</defs>
</svg>
