<svg width="21" height="21" viewBox="0 0 21 21" fill="none" xmlns="http://www.w3.org/2000/svg">
<path fill-rule="evenodd" clip-rule="evenodd" d="M11.2833 1.09022L13.824 6.20897C13.95 6.46731 14.1948 6.64647 14.4792 6.68918L20.1646 7.51314C20.3948 7.54335 20.6031 7.66522 20.7437 7.85064C21.0083 8.19543 20.9688 8.6871 20.651 8.98501L16.5323 12.985C16.324 13.1798 16.2302 13.4694 16.2844 13.7486L17.2771 19.3871C17.3458 19.8558 17.0281 20.2913 16.5625 20.3683C16.3687 20.3986 16.1708 20.3673 15.9969 20.2798L10.926 17.6225C10.6719 17.484 10.3656 17.484 10.1125 17.6225L5.00833 20.2986C4.58229 20.5131 4.06563 20.3517 3.83438 19.9371C3.74583 19.7694 3.71354 19.5756 3.74479 19.3871L4.7375 13.7486C4.78542 13.4694 4.69271 13.1829 4.48958 12.985L0.338543 8.98397C1.37091e-06 8.64647 -0.00104031 8.09856 0.33646 7.75897L0.338543 7.75689C0.477085 7.63085 0.64896 7.54543 0.834376 7.51314L6.51979 6.68918C6.80208 6.64335 7.175 6.20897 7.175 6.20897L9.71563 1.09022C9.81667 0.881889 9.99792 0.722514 10.2177 0.649597C10.4375 0.575639 10.6781 0.592305 10.8865 0.697514C11.0573 0.78293 11.1958 0.92043 11.2833 1.09022Z" fill="#F2C94C"/>
</svg>
