<svg width="48" height="48" viewBox="0 0 48 48" fill="none" xmlns="http://www.w3.org/2000/svg">
<path fill-rule="evenodd" clip-rule="evenodd" d="M37.3232 18.1522C37.3348 18.452 37.3387 18.7517 37.3387 19.0515C37.3387 28.141 30.9447 38.6343 19.2523 38.6343C15.6605 38.6343 12.3208 37.4895 9.50684 35.5408C10.0042 35.5953 10.5094 35.6363 11.0223 35.6363C14.0004 35.6363 16.7432 34.5322 18.9189 32.6789C16.1373 32.638 13.7885 30.6348 12.9784 27.9093C13.3673 27.9911 13.7678 28.0321 14.1773 28.0321C14.7549 28.0321 15.3156 27.9504 15.853 27.7869C12.9422 27.16 10.7497 24.3801 10.7497 21.0414C10.7497 21.0005 10.7497 20.9868 10.7497 20.9595C11.6076 21.4638 12.5895 21.777 13.6321 21.8179C11.9241 20.5778 10.8014 18.4656 10.8014 16.0808C10.8014 14.8271 11.114 13.6415 11.6644 12.6194C14.7988 16.7894 19.4848 19.5285 24.7677 19.8147C24.6592 19.3105 24.6036 18.7792 24.6036 18.2477C24.6036 14.4456 27.4499 11.3658 30.9615 11.3658C32.7896 11.3658 34.4408 12.1972 35.5997 13.5327C37.0506 13.2329 38.4098 12.6605 39.6397 11.8702C39.163 13.4782 38.1565 14.827 36.8413 15.6719C38.1281 15.5084 39.3555 15.1407 40.4937 14.5956C39.6397 15.972 38.5648 17.1847 37.3232 18.1522Z" fill="#1EA1F2"/>
</svg>
