<svg width="56" height="65" viewBox="0 0 56 65" fill="none" xmlns="http://www.w3.org/2000/svg">
<path fill-rule="evenodd" clip-rule="evenodd" d="M37.3486 1.4363H14.621C7.58607 1.4363 1.52148 7.13872 1.52148 14.1771V51.2445C1.52148 58.6791 7.18632 64.1424 14.621 64.1424H41.9133C48.9516 64.1424 54.6575 58.2828 54.6575 51.2445V19.4626L37.3486 1.4363Z" stroke="#EBD6AD" stroke-width="1.5" stroke-linecap="round" stroke-linejoin="round"/>
<path d="M36.4512 1.39628V11.3354C36.4512 16.187 40.3769 20.123 45.2286 20.1333C49.7249 20.1435 54.3272 20.147 54.6381 20.1265" stroke="#EBD6AD" stroke-width="1.5" stroke-linecap="round" stroke-linejoin="round"/>
<path opacity="0.4" fill-rule="evenodd" clip-rule="evenodd" d="M28.2154 27.7523C28.2154 27.3381 27.8796 27.0023 27.4654 27.0023C27.0512 27.0023 26.7154 27.3381 26.7154 27.7523V35.3732H19.0938C18.6795 35.3732 18.3438 35.709 18.3438 36.1232C18.3438 36.5374 18.6795 36.8732 19.0938 36.8732H26.7154V44.4974C26.7154 44.9116 27.0512 45.2474 27.4654 45.2474C27.8796 45.2474 28.2154 44.9116 28.2154 44.4974V36.8732H35.8388C36.253 36.8732 36.5888 36.5374 36.5888 36.1232C36.5888 35.709 36.253 35.3732 35.8388 35.3732H28.2154V27.7523Z" fill="#EBD6AD"/>
</svg>
