<svg width="0" height="0" class="hidden">
  <symbol fill="" xmlns="http://www.w3.org/2000/svg" viewBox="0 0 21 21" id="icon-star">
    <path fill-rule="evenodd" clip-rule="evenodd" d="M11.283 1.09l2.541 5.119c.126.258.37.437.655.48l5.686.824a.87.87 0 01.579.338.849.849 0 01-.093 1.134l-4.119 4a.83.83 0 00-.248.764l.993 5.638a.866.866 0 01-.715.981.937.937 0 01-.565-.088l-5.071-2.658a.848.848 0 00-.813 0L5.008 20.3a.887.887 0 01-1.174-.362.874.874 0 01-.09-.55l.993-5.638a.864.864 0 00-.247-.764L.339 8.984a.867.867 0 01-.003-1.225l.003-.002a.99.99 0 01.495-.244L6.52 6.69c.282-.046.655-.48.655-.48l2.54-5.119a.868.868 0 011.17-.393.9.9 0 01.398.393z" fill=""></path>
  </symbol>
  <symbol viewBox="0 0 24 24" fill="none" xmlns="http://www.w3.org/2000/svg" id="cart-share">
    <path opacity="0.4" d="M15.7116 7.7267L9.89062 13.5477" stroke="#200E32" stroke-width="1.5" stroke-linecap="round" stroke-linejoin="round"/>
    <path d="M9.8912 13.548L3.0762 9.381C2.1832 8.835 2.3642 7.488 3.3702 7.197L19.4602 2.549C20.3752 2.284 21.2212 3.138 20.9472 4.05L16.1732 20.014C15.8742 21.014 14.5332 21.186 13.9912 20.294L9.8912 13.548" stroke="#200E32" stroke-width="1.5" stroke-linecap="round" stroke-linejoin="round"/>
  </symbol>
  <symbol viewBox="0 0 24 24" fill="none" xmlns="http://www.w3.org/2000/svg" id="icon-cart">
  <path opacity="0.4" fill-rule="evenodd" clip-rule="evenodd" d="M7.4222 19.8203C7.8442 19.8203 8.1872 20.1633 8.1872 20.5853C8.1872 21.0073 7.8442 21.3493 7.4222 21.3493C7.0002 21.3493 6.6582 21.0073 6.6582 20.5853C6.6582 20.1633 7.0002 19.8203 7.4222 19.8203Z" stroke="" stroke-width="1.5" stroke-linecap="round" stroke-linejoin="round"/>
  <path opacity="0.4" fill-rule="evenodd" clip-rule="evenodd" d="M18.6752 19.8203C19.0972 19.8203 19.4402 20.1633 19.4402 20.5853C19.4402 21.0073 19.0972 21.3493 18.6752 21.3493C18.2532 21.3493 17.9102 21.0073 17.9102 20.5853C17.9102 20.1633 18.2532 19.8203 18.6752 19.8203Z" stroke="" stroke-width="1.5" stroke-linecap="round" stroke-linejoin="round"/>
  <path d="M2.75 3.25L4.83 3.61L5.793 15.083C5.871 16.018 6.652 16.736 7.59 16.736H18.502C19.398 16.736 20.158 16.078 20.287 15.19L21.236 8.632C21.353 7.823 20.726 7.099 19.909 7.099H5.164" stroke="" stroke-width="1.5" stroke-linecap="round" stroke-linejoin="round"/>
  <path opacity="0.4" d="M14.125 10.795H16.898" stroke="1" stroke-width="1.5" stroke-linecap="round" stroke-linejoin="round"/>
  </symbol>
  <symbol viewBox="0 0 18 18" fill="none" xmlns="http://www.w3.org/2000/svg" id="icon-delete">
  <path d="M9 2.71875C9.5576 2.71873 10.0935 2.93472 10.4953 3.32138C10.8971 3.70804 11.1334 4.23531 11.1547 4.7925L11.1562 4.875H13.875C13.9949 4.87539 14.1101 4.9217 14.1969 5.00442C14.2837 5.08714 14.3355 5.19997 14.3416 5.31971C14.3478 5.43945 14.3078 5.55699 14.2299 5.64817C14.1521 5.73934 14.0422 5.79721 13.923 5.80987L13.875 5.8125H13.4659L12.8273 14.2762C12.797 14.677 12.6164 15.0516 12.3217 15.3249C12.027 15.5982 11.6399 15.75 11.238 15.75H6.762C6.36008 15.75 5.973 15.5982 5.67829 15.3249C5.38358 15.0516 5.20301 14.677 5.17275 14.2762L4.53375 5.8125H4.125C4.00895 5.81255 3.89701 5.76956 3.81084 5.69183C3.72466 5.61411 3.67038 5.50719 3.6585 5.39175L3.65625 5.34375C3.65625 5.10112 3.84075 4.90125 4.077 4.87762L4.125 4.875H6.84375C6.84375 4.30313 7.07093 3.75468 7.4753 3.3503C7.87968 2.94593 8.42813 2.71875 9 2.71875ZM12.5258 5.8125H5.47425L6.108 14.2057C6.12048 14.3707 6.19478 14.5248 6.31605 14.6373C6.43731 14.7498 6.59659 14.8124 6.762 14.8125H11.238C11.4035 14.8125 11.5628 14.75 11.6842 14.6375C11.8055 14.525 11.8799 14.3708 11.8924 14.2057L12.5261 5.8125H12.5258ZM10.2188 7.78125C10.4614 7.78125 10.6612 7.96575 10.6852 8.202L10.6875 8.25V12.375C10.6881 12.4955 10.6422 12.6117 10.5593 12.6992C10.4765 12.7868 10.3632 12.8391 10.2428 12.8453C10.1224 12.8515 10.0043 12.8111 9.91292 12.7324C9.82157 12.6538 9.76403 12.543 9.75225 12.423L9.75 12.375V8.25C9.75 7.99125 9.96 7.78125 10.2188 7.78125ZM7.78125 7.78125C8.02388 7.78125 8.22375 7.96575 8.24775 8.202L8.25 8.25V12.375C8.25056 12.4955 8.20467 12.6117 8.12185 12.6992C8.03903 12.7868 7.92566 12.8391 7.80528 12.8453C7.6849 12.8515 7.56677 12.8111 7.47542 12.7324C7.38407 12.6538 7.32653 12.543 7.31475 12.423L7.3125 12.375V8.25C7.3125 7.99125 7.5225 7.78125 7.78125 7.78125ZM9 3.65625C8.6887 3.65623 8.38919 3.77533 8.16291 3.98913C7.93664 4.20292 7.80075 4.4952 7.78312 4.806L7.78125 4.875H10.2188C10.2188 4.55177 10.0903 4.24177 9.86179 4.01321C9.63323 3.78465 9.32323 3.65625 9 3.65625Z" fill="#F90F0F"/>
  </symbol>
  <symbol viewBox="0 0 28 26" fill="none" xmlns="http://www.w3.org/2000/svg" id="icon-cart-two">
    <path opacity="0.4" fill-rule="evenodd" clip-rule="evenodd" d="M5.42239 22.8203C5.84439 22.8203 6.18739 23.1633 6.18739 23.5853C6.18739 24.0073 5.84439 24.3493 5.42239 24.3493C5.00039 24.3493 4.65839 24.0073 4.65839 23.5853C4.65839 23.1633 5.00039 22.8203 5.42239 22.8203Z" stroke="" stroke-width="1.5" stroke-linecap="round" stroke-linejoin="round"/>
    <path opacity="0.4" fill-rule="evenodd" clip-rule="evenodd" d="M16.6748 22.8203C17.0968 22.8203 17.4398 23.1633 17.4398 23.5853C17.4398 24.0073 17.0968 24.3493 16.6748 24.3493C16.2528 24.3493 15.9098 24.0073 15.9098 23.5853C15.9098 23.1633 16.2528 22.8203 16.6748 22.8203Z" stroke="" stroke-width="1.5" stroke-linecap="round" stroke-linejoin="round"/>
    <path d="M0.75 6.25L2.83 6.61L3.793 18.083C3.871 19.018 4.652 19.736 5.59 19.736H16.502C17.398 19.736 18.158 19.078 18.287 18.19L19.236 11.632C19.353 10.823 18.726 10.099 17.909 10.099H3.164" stroke="wite" stroke-width="1.5" stroke-linecap="round" stroke-linejoin="round"/>
    <path opacity="0.4" d="M12.1255 13.795H14.8985" stroke="" stroke-width="1.5" stroke-linecap="round" stroke-linejoin="round"/>
    <circle cx="24" cy="4" r="4" fill="#CC9933" stroke="#CC9933"/>
  </symbol>

</svg>