<svg width="19" height="18" viewBox="0 0 19 18" fill="none" xmlns="http://www.w3.org/2000/svg">
<path fill-rule="evenodd" clip-rule="evenodd" d="M17.5475 15.0901L11.428 8.99996L17.5475 2.9098C18.2081 2.25229 18.2081 1.19374 17.5475 0.536226C16.8868 -0.121287 15.8231 -0.121287 15.1625 0.536226L9.04297 6.62638L2.92348 0.536226C2.2628 -0.121287 1.19916 -0.121287 0.538478 0.536226C-0.122201 1.19374 -0.122201 2.25229 0.538478 2.9098L6.65796 8.99996L0.538478 15.0901C-0.122201 15.7476 -0.122201 16.8062 0.538478 17.4637C1.19916 18.1212 2.2628 18.1212 2.92348 17.4637L9.04297 11.3735L15.1625 17.4637C15.8231 18.1212 16.8868 18.1212 17.5475 17.4637C18.2035 16.8062 18.2035 15.743 17.5475 15.0901Z" fill="#EB5757"/>
</svg>
