<svg width="28" height="28" viewBox="0 0 28 28" fill="none" xmlns="http://www.w3.org/2000/svg">
<rect width="28" height="28" rx="14" fill="#4D4D4D"/>
<path d="M18.8508 10.9953C18.5817 11.3969 18.2516 11.7392 17.8604 12.0222C17.8643 12.0982 17.8662 12.184 17.8662 12.2796C17.8662 12.8113 17.789 13.3437 17.6344 13.8766C17.4799 14.4096 17.2438 14.9198 16.9263 15.4071C16.6087 15.8944 16.2304 16.3261 15.7914 16.7023C15.3524 17.0784 14.8247 17.3783 14.2083 17.602C13.5919 17.8257 12.9313 17.9375 12.2265 17.9375C11.1265 17.9375 10.1135 17.6396 9.1875 17.0437C9.35185 17.0621 9.50948 17.0713 9.66038 17.0713C10.5793 17.0713 11.4001 16.7873 12.1227 16.2194C11.6942 16.2115 11.3105 16.0792 10.9715 15.8224C10.6325 15.5656 10.3993 15.2375 10.2717 14.8381C10.3978 14.8622 10.5222 14.8743 10.6451 14.8743C10.8219 14.8743 10.9958 14.8511 11.1669 14.8049C10.7097 14.713 10.3303 14.4845 10.0289 14.1194C9.72752 13.7544 9.57682 13.333 9.57682 12.8553V12.8307C9.85749 12.9866 10.1569 13.0695 10.4749 13.0795C10.2041 12.8983 9.98931 12.6621 9.83065 12.3707C9.67199 12.0794 9.59266 11.7642 9.59266 11.4249C9.59266 11.0672 9.68202 10.7341 9.86073 10.4255C10.358 11.0377 10.9605 11.527 11.6683 11.8934C12.3762 12.2598 13.1355 12.4632 13.9464 12.5038C13.9118 12.3592 13.8945 12.2083 13.8944 12.0511C13.8944 11.5022 14.088 11.0336 14.4753 10.6452C14.8625 10.2567 15.3296 10.0625 15.8767 10.0625C16.4495 10.0625 16.932 10.2717 17.3242 10.6902C17.7722 10.6012 18.1917 10.4401 18.5827 10.2071C18.4321 10.6827 18.1418 11.0496 17.7119 11.3078C18.107 11.2607 18.4867 11.1565 18.8508 10.9953H18.8508Z" fill="white"/>
</svg>
