<svg width="28" height="28" viewBox="0 0 28 28" fill="none" xmlns="http://www.w3.org/2000/svg">
<rect width="28" height="28" rx="14" fill="#4D4D4D"/>
<path d="M16.122 8.75H11.878C10.1532 8.75 8.75 10.1532 8.75 11.878V16.122C8.75 17.8468 10.1532 19.25 11.878 19.25H16.122C17.8468 19.25 19.25 17.8468 19.25 16.122V11.878C19.25 10.1532 17.8468 8.75 16.122 8.75ZM18.1937 16.122C18.1937 17.2662 17.2662 18.1937 16.122 18.1937H11.878C10.7338 18.1937 9.8063 17.2662 9.8063 16.122V11.878C9.8063 10.7338 10.7338 9.8063 11.878 9.8063H16.122C17.2662 9.8063 18.1937 10.7338 18.1937 11.878V16.122Z" fill="white"/>
<path d="M14.0008 11.2844C12.5034 11.2844 11.2852 12.5027 11.2852 14.0001C11.2852 15.4975 12.5034 16.7158 14.0008 16.7158C15.4983 16.7158 16.7165 15.4975 16.7165 14.0001C16.7165 12.5027 15.4983 11.2844 14.0008 11.2844ZM14.0008 15.6595C13.0844 15.6595 12.3415 14.9166 12.3415 14.0001C12.3415 13.0836 13.0844 12.3407 14.0008 12.3407C14.9173 12.3407 15.6602 13.0836 15.6602 14.0001C15.6602 14.9165 14.9173 15.6595 14.0008 15.6595Z" fill="white"/>
<path d="M16.721 11.9553C17.0804 11.9553 17.3718 11.6639 17.3718 11.3045C17.3718 10.9452 17.0804 10.6538 16.721 10.6538C16.3617 10.6538 16.0703 10.9452 16.0703 11.3045C16.0703 11.6639 16.3617 11.9553 16.721 11.9553Z" fill="white"/>
</svg>
