<svg width="28" height="26" viewBox="0 0 28 26" fill="none" xmlns="http://www.w3.org/2000/svg">
<path opacity="0.4" fill-rule="evenodd" clip-rule="evenodd" d="M5.42239 22.8203C5.84439 22.8203 6.18739 23.1633 6.18739 23.5853C6.18739 24.0073 5.84439 24.3493 5.42239 24.3493C5.00039 24.3493 4.65839 24.0073 4.65839 23.5853C4.65839 23.1633 5.00039 22.8203 5.42239 22.8203Z" stroke="white" stroke-width="1.5" stroke-linecap="round" stroke-linejoin="round"/>
<path opacity="0.4" fill-rule="evenodd" clip-rule="evenodd" d="M16.6748 22.8203C17.0968 22.8203 17.4398 23.1633 17.4398 23.5853C17.4398 24.0073 17.0968 24.3493 16.6748 24.3493C16.2528 24.3493 15.9098 24.0073 15.9098 23.5853C15.9098 23.1633 16.2528 22.8203 16.6748 22.8203Z" stroke="white" stroke-width="1.5" stroke-linecap="round" stroke-linejoin="round"/>
<path d="M0.75 6.25L2.83 6.61L3.793 18.083C3.871 19.018 4.652 19.736 5.59 19.736H16.502C17.398 19.736 18.158 19.078 18.287 18.19L19.236 11.632C19.353 10.823 18.726 10.099 17.909 10.099H3.164" stroke="white" stroke-width="1.5" stroke-linecap="round" stroke-linejoin="round"/>
<path opacity="0.4" d="M12.1255 13.795H14.8985" stroke="white" stroke-width="1.5" stroke-linecap="round" stroke-linejoin="round"/>
<circle cx="24" cy="4" r="4" fill="#CC9933"/>
</svg>
