<svg width="0" height="0" class="hidden">
  <symbol fill="" xmlns="http://www.w3.org/2000/svg" viewBox="0 0 21 21" id="icon-star">
    <path fill-rule="evenodd" clip-rule="evenodd" d="M11.283 1.09l2.541 5.119c.126.258.37.437.655.48l5.686.824a.87.87 0 01.579.338.849.849 0 01-.093 1.134l-4.119 4a.83.83 0 00-.248.764l.993 5.638a.866.866 0 01-.715.981.937.937 0 01-.565-.088l-5.071-2.658a.848.848 0 00-.813 0L5.008 20.3a.887.887 0 01-1.174-.362.874.874 0 01-.09-.55l.993-5.638a.864.864 0 00-.247-.764L.339 8.984a.867.867 0 01-.003-1.225l.003-.002a.99.99 0 01.495-.244L6.52 6.69c.282-.046.655-.48.655-.48l2.54-5.119a.868.868 0 011.17-.393.9.9 0 01.398.393z" fill=""></path>
  </symbol>
  <symbol viewBox="0 0 24 24" fill="none" xmlns="http://www.w3.org/2000/svg" id="cart-share">
    <path opacity="0.4" d="M15.7116 7.7267L9.89062 13.5477" stroke="#200E32" stroke-width="1.5" stroke-linecap="round" stroke-linejoin="round"/>
    <path d="M9.8912 13.548L3.0762 9.381C2.1832 8.835 2.3642 7.488 3.3702 7.197L19.4602 2.549C20.3752 2.284 21.2212 3.138 20.9472 4.05L16.1732 20.014C15.8742 21.014 14.5332 21.186 13.9912 20.294L9.8912 13.548" stroke="#200E32" stroke-width="1.5" stroke-linecap="round" stroke-linejoin="round"/>
  </symbol>
</svg>